<svg width="21" height="22" viewBox="0 0 21 22" fill="none" xmlns="http://www.w3.org/2000/svg">
<path d="M1.17554 11C1.17554 6.522 1.17554 4.282 2.56654 2.891C3.95754 1.5 6.19654 1.5 10.6755 1.5C15.1535 1.5 17.3935 1.5 18.7845 2.891C20.1755 4.282 20.1755 6.521 20.1755 11C20.1755 15.478 20.1755 17.718 18.7845 19.109C17.3935 20.5 15.1545 20.5 10.6755 20.5C6.19754 20.5 3.95754 20.5 2.56654 19.109C1.17554 17.718 1.17554 15.479 1.17554 11Z" stroke="#FEFAFA" stroke-width="1.5" stroke-linecap="round" stroke-linejoin="round"/>
<path d="M16.1835 5.5H16.1735M15.1755 11C15.1755 12.1935 14.7014 13.3381 13.8575 14.182C13.0136 15.0259 11.869 15.5 10.6755 15.5C9.48206 15.5 8.33747 15.0259 7.49356 14.182C6.64964 13.3381 6.17554 12.1935 6.17554 11C6.17554 9.80653 6.64964 8.66193 7.49356 7.81802C8.33747 6.97411 9.48206 6.5 10.6755 6.5C11.869 6.5 13.0136 6.97411 13.8575 7.81802C14.7014 8.66193 15.1755 9.80653 15.1755 11Z" stroke="#FEFAFA" stroke-width="1.5" stroke-linecap="round" stroke-linejoin="round"/>
</svg>
