<svg width="25" height="25" viewBox="0 0 25 25" fill="none" xmlns="http://www.w3.org/2000/svg">
<g clip-path="url(#clip0_1_31)">
<path fill-rule="evenodd" clip-rule="evenodd" d="M18.1755 3.5C18.9712 3.5 19.7342 3.81607 20.2969 4.37868C20.8595 4.94129 21.1755 5.70435 21.1755 6.5V18.5C21.1755 19.2956 20.8595 20.0587 20.2969 20.6213C19.7342 21.1839 18.9712 21.5 18.1755 21.5H6.17554C5.37989 21.5 4.61683 21.1839 4.05422 20.6213C3.49161 20.0587 3.17554 19.2956 3.17554 18.5V6.5C3.17554 5.70435 3.49161 4.94129 4.05422 4.37868C4.61683 3.81607 5.37989 3.5 6.17554 3.5H18.1755ZM8.17554 10.5C7.91032 10.5 7.65597 10.6054 7.46843 10.7929C7.28089 10.9804 7.17554 11.2348 7.17554 11.5V16.5C7.17554 16.7652 7.28089 17.0196 7.46843 17.2071C7.65597 17.3946 7.91032 17.5 8.17554 17.5C8.44075 17.5 8.69511 17.3946 8.88264 17.2071C9.07018 17.0196 9.17554 16.7652 9.17554 16.5V11.5C9.17554 11.2348 9.07018 10.9804 8.88264 10.7929C8.69511 10.6054 8.44075 10.5 8.17554 10.5ZM11.1755 9.5C10.9103 9.5 10.656 9.60536 10.4684 9.79289C10.2809 9.98043 10.1755 10.2348 10.1755 10.5V16.5C10.1755 16.7652 10.2809 17.0196 10.4684 17.2071C10.656 17.3946 10.9103 17.5 11.1755 17.5C11.4408 17.5 11.6951 17.3946 11.8826 17.2071C12.0702 17.0196 12.1755 16.7652 12.1755 16.5V12.84C12.4805 12.496 12.9955 12.092 13.5685 11.847C13.9015 11.705 14.4025 11.647 14.7505 11.757C14.866 11.7863 14.9688 11.8523 15.0435 11.945C15.0955 12.015 15.1755 12.171 15.1755 12.5V16.5C15.1755 16.7652 15.2809 17.0196 15.4684 17.2071C15.656 17.3946 15.9103 17.5 16.1755 17.5C16.4408 17.5 16.6951 17.3946 16.8826 17.2071C17.0702 17.0196 17.1755 16.7652 17.1755 16.5V12.5C17.1755 11.83 17.0055 11.234 16.6515 10.756C16.3258 10.3226 15.8699 10.0047 15.3505 9.849C14.4485 9.566 13.4495 9.723 12.7825 10.009C12.5688 10.1005 12.3608 10.2047 12.1595 10.321C12.1176 10.0906 11.9962 9.8822 11.8163 9.73216C11.6365 9.58213 11.4097 9.49996 11.1755 9.5ZM8.17554 7.5C7.91032 7.5 7.65597 7.60536 7.46843 7.79289C7.28089 7.98043 7.17554 8.23478 7.17554 8.5C7.17554 8.76522 7.28089 9.01957 7.46843 9.20711C7.65597 9.39464 7.91032 9.5 8.17554 9.5C8.44075 9.5 8.69511 9.39464 8.88264 9.20711C9.07018 9.01957 9.17554 8.76522 9.17554 8.5C9.17554 8.23478 9.07018 7.98043 8.88264 7.79289C8.69511 7.60536 8.44075 7.5 8.17554 7.5Z" fill="#FEFAFA"/>
</g>
<defs>
<clipPath id="clip0_1_31">
<rect width="24" height="24" fill="white" transform="translate(0.175537 0.5)"/>
</clipPath>
</defs>
</svg>
