<svg width="353" height="642" viewBox="0 0 353 642" fill="none" xmlns="http://www.w3.org/2000/svg">
<path d="M77.3358 321L342.744 586.344C348.753 592.353 352.128 600.502 352.128 609C352.128 617.498 348.753 625.647 342.744 631.656C336.735 637.665 328.585 641.04 320.088 641.04C311.59 641.04 303.441 637.665 297.432 631.656L9.43176 343.656C6.45172 340.683 4.08738 337.152 2.47417 333.265C0.860954 329.377 0.0305634 325.209 0.0305634 321C0.0305634 316.791 0.860954 312.623 2.47417 308.735C4.08738 304.848 6.45172 301.317 9.43176 298.344L297.432 10.344C303.441 4.33526 311.59 0.959595 320.088 0.959595C328.585 0.959595 336.735 4.33526 342.744 10.344C348.753 16.3528 352.128 24.5024 352.128 33C352.128 41.4977 348.753 49.6473 342.744 55.656L77.3358 321Z" fill="white"/>
</svg>
